<svg width="20" height="24" viewBox="0 0 20 24" fill="none" xmlns="http://www.w3.org/2000/svg">
<path d="M3.00024 6C4.10481 6 5.00024 5.10457 5.00024 4C5.00024 2.89543 4.10481 2 3.00024 2C1.89567 2 1.00024 2.89543 1.00024 4C1.00024 5.10457 1.89567 6 3.00024 6Z" fill="white"/>
<path d="M13 15.4919C11.9442 15.8634 10.7746 16.0361 9.60067 15.9937C8.42687 15.9514 7.28712 15.6955 6.28811 15.25C5.28909 14.8044 4.46345 14.1838 3.88842 13.4462C3.31339 12.7087 3.00777 11.8781 3.00015 11.0324C2.99252 10.1867 3.28315 9.35333 3.84485 8.61043C4.40653 7.86756 5.22091 7.23932 6.21184 6.7845C7.20275 6.3297 8.33775 6.06319 9.51075 6.00993C10.6837 5.95666 11.8563 6.11837 12.9188 6.47993L12.5508 7.03985C11.6199 6.7231 10.5927 6.58142 9.565 6.62808C8.53732 6.67476 7.54287 6.90825 6.6747 7.30668C5.80656 7.70518 5.09305 8.25562 4.60094 8.90649C4.10883 9.55733 3.85421 10.2874 3.86089 11.0283C3.86756 11.7693 4.13532 12.497 4.63911 13.1432C5.14291 13.7894 5.86627 14.3332 6.74155 14.7235C7.61682 15.1138 8.61532 15.338 9.64383 15.3751C10.6722 15.4122 11.6969 15.2609 12.6219 14.9355L13 15.4919Z" fill="white"/>
</svg>
